<?xml version="1.0" encoding="UTF-8"?><svg id="Ebene_2" xmlns="http://www.w3.org/2000/svg" viewBox="0 0 479.47 160.97"><defs><style>.cls-1{fill:#2a3287;}</style></defs><g id="Ebene_1-2"><g><g><polygon class="cls-1" points="262.93 .64 244.88 5.49 244.88 86.09 262.93 86.09 262.93 .64"/><path class="cls-1" d="M300.9,44.13h13.17l1.25-14.78h-14.42v-7.15c0-4.01,.39-6.51,6.15-6.51,2.13,0,5.52,.37,8.02,.87l2.26-14.16c-4.9-1-8.65-1.76-13.79-1.76-14.79,0-20.67,7.02-20.67,19.55v9.15h-9.29v14.78h9.29v24.87l18.03-4.85v-20.03Z"/><path class="cls-1" d="M347.9,26.84c-20.3,0-26.19,11.28-26.19,24.43v12.88h50.88v-12c0-13.28-4.39-25.31-24.69-25.31m7.65,24.56h-15.79v-2.63c0-4.26,1.99-7.77,8.26-7.77s7.53,3.51,7.53,7.77v2.63Z"/><path class="cls-1" d="M451.96,14.05c5.76,0,9.26,4.17,9.26,9.3s-3.5,9.3-9.26,9.3-9.3-4.21-9.3-9.3,3.54-9.3,9.3-9.3m0,16.85c4.88,0,7.46-3.38,7.46-7.55s-2.57-7.6-7.46-7.6-7.5,3.44-7.5,7.6,2.62,7.55,7.5,7.55m.52-6.32h-2.07v2.83h-1.22v-8.53h3.29c1.84,0,2.56,.83,2.56,2.21v1.29c0,.92-.31,1.54-1.23,1.95l2.32,3.09h-1.49l-2.16-2.83Zm0-4.58h-2.07v3.44h2.07c1.03,0,1.32-.41,1.32-1.08v-1.29c0-.87-.4-1.08-1.32-1.08"/><path class="cls-1" d="M421.36,89.12V48.77c0-2.75-1.25-4.38-4.39-4.38s-9.27,2.25-13.15,4.38v40.36h-18.05V28.09h13.42l1.87,4.64c7.51-3.63,17.29-5.88,24.32-5.88,10.4,0,14.03,7.77,14.03,19.55v42.74h-18.05Z"/><path class="cls-1" d="M198.87,64.16v1.71c0,6.82,2.77,8.66,11.04,8.66,5.64,0,13.15-.98,18.54-2.56l2.63,13.17c-5.52,1.95-14.4,3.78-22.93,3.78-19.81,0-27.32-9.5-27.32-24.14v-13.9c0-12.8,5.88-23.77,26.19-23.77s24.69,11.7,24.69,24.62v12.44h-32.84Zm15.8-15.73c0-4.14-1.27-7.56-7.53-7.56s-8.27,3.42-8.27,7.56v2.56h15.8v-2.56Z"/><path class="cls-1" d="M186.5,159.72v-40.36c0-2.75-1.25-4.38-4.37-4.38s-9.27,2.51-13.17,4.51v40.23h-18.04V76.09l17.8-4.85v31.84c7.38-3.38,14.78-5.64,21.8-5.64,10.4,0,14.03,7.77,14.03,19.55v42.74h-18.05Z"/><path class="cls-1" d="M235.91,135.53v1.76c0,7.02,2.77,8.9,11.04,8.9,5.64,0,13.15-1,18.54-2.63l2.63,13.53c-5.52,2.01-14.4,3.88-22.93,3.88-19.81,0-27.32-9.77-27.32-24.81v-14.29c0-13.15,5.88-24.43,26.19-24.43s24.69,12.03,24.69,25.31v12.78h-32.84Zm15.8-16.17c0-4.26-1.27-7.77-7.53-7.77s-8.27,3.51-8.27,7.77v2.63h15.8v-2.63Z"/><polygon class="cls-1" points="282.68 159.72 282.68 76.09 300.73 71.24 300.73 159.72 282.68 159.72"/><path class="cls-1" d="M353.63,87.16c-2.5-.5-5.89-.87-8.02-.87-5.76,0-6.15,2.5-6.15,6.51v7.15h14.42l-1.25,14.78h-13.17v44.99h-18.04v-44.99h-9.29v-14.78h9.29v-9.15c0-12.53,5.88-19.55,20.67-19.55,5.15,0,8.9,.75,13.79,1.76l-2.26,14.16Z"/><path class="cls-1" d="M379.07,135.53v1.76c0,7.02,2.75,8.9,11.03,8.9,5.64,0,13.15-1,18.54-2.63l2.63,13.53c-5.52,2.01-14.4,3.88-22.93,3.88-19.81,0-27.32-9.77-27.32-24.81v-14.29c0-13.15,5.89-24.43,26.19-24.43s24.69,12.03,24.69,25.31v12.78h-32.83Zm15.79-16.17c0-4.26-1.25-7.77-7.53-7.77s-8.26,3.51-8.26,7.77v2.63h15.79v-2.63Z"/><path class="cls-1" d="M461.42,159.72v-40.36c0-2.75-1.25-4.38-4.39-4.38s-9.27,2.25-13.15,4.38v40.36h-18.05v-61.03h13.42l1.88,4.64c7.51-3.63,17.29-5.89,24.31-5.89,10.4,0,14.03,7.77,14.03,19.55v42.74h-18.05Z"/><path class="cls-1" d="M132.67,48.89c3.9-2,9.91-4.51,13.17-4.51s4.37,1.63,4.37,4.38v20.17l18.05-4.78v-17.77c0-11.78-3.63-19.55-14.03-19.55-7.02,0-14.42,2.25-21.8,5.64V.64l-17.8,4.85V93.56l18.04-5.08V48.89Z"/><path class="cls-1" d="M353.63,87.16c-2.5-.5-5.89-.87-8.02-.87-5.76,0-6.15,2.5-6.15,6.51v7.15h14.42l-1.25,14.78h-13.17v44.99h-18.04v-44.99h-9.29v-14.78h9.29v-9.15c0-12.53,5.88-19.55,20.67-19.55,5.15,0,8.9,.75,13.79,1.76l-2.26,14.16Z"/></g><g><g><path class="cls-1" d="M67.44,61.4c-.21,.22-.42,.42-.66,.59-.96,.68-2.02,1.02-2.94,1.26-1.11,.29-2.29,.57-3.62,.84-.85,.17-1.77,.32-2.97,.46-.78,.11-1.56,.16-2.32,.21h-.15c-.67,.05-1.36,.09-2.02,.14-.15,0-.29,.01-.43,.02v.06h-3.33c-.19-.01-.38-.01-.57-.01h-.02v6.25h.03c.79,.02,1.59,.01,2.37,.01h.9v-.03h.15c.28-.02,.58-.04,.87-.05,.65-.04,1.34-.07,2.01-.13h.15c.63-.05,1.27-.11,1.91-.17,.13-.02,.25-.02,.38-.04,1.19-.15,2.1-.29,2.94-.46,1.32-.26,2.5-.54,3.58-.83,.86-.23,1.86-.55,2.76-1.17,.28-.21,.54-.47,.82-.79,0,0,.01-.01,.01-.02,.01,0,.01-.01,.02-.02,.01-.05,.03-.11,.04-.16,.01-.09-.03-.18-.06-.23l.16-.12c.07-.37,.11-.75,.11-1.13,0-.43-.04-.87-.05-1.32-.02-1.05-.03-2.11-.05-3.17Z"/><path class="cls-1" d="M48.41,61.88v1.04c.19,.01,.39,.01,.59,.01,6.96,.06,13.88-1.12,18.04-3.76,.57-.11,.13-.85,.12-1.42,.43-1.82-.12-3.31-.81-4.84-1.03-8.45-1.59-16.99-2.47-25.46-.14-.7-.3-1.55-.45-2.46-.68-3.82-3.37-7.93-7.02-7.93h-7.7v15.78l-.28,.11-8.77,3.35-.08-18.9-15.15,4.1v50.47l15.35-4.33-.09-21.35,8.73-3.44v19.04Zm15.46-17.06s0,.07,0,.1c0,.21,0,.72-.51,.74h-.02c-.27,0-.5-.22-.53-.49-.05-.48,.1-.75,.45-.8,.28-.06,.55,.17,.6,.44Zm-.49-4.19c.17,1.98,.22,2.3,.23,2.35,.05,.28-.13,.56-.42,.62-.03,0-.07,.01-.1,.01-.25,0-.47-.17-.52-.42-.01-.07-.05-.25-.24-2.46-.03-.29,.19-.55,.48-.57,.27-.04,.55,.19,.57,.48Zm-8.83-22.26c3.93,0,6.82,4.31,7.54,8.36,.08,.45,.36,3.77,.78,8.79l.22,2.6c.02,.29-.19,.55-.48,.57-.01,0-.03,0-.05,0-.27,0-.5-.21-.52-.48l-.22-2.6c-.33-3.87-.7-8.26-.77-8.69-.65-3.63-3.15-7.49-6.51-7.49-.29,0-.53-.24-.53-.53s.24-.53,.53-.53Zm-.79,12.02c.19,.27,.49,.34,.75,.44,.4,.15,.79,.36,1.15,.62-.2,.14-.4,.28-.59,.43,.09,.76,.18,1.52,.26,2.28,.28,2.4,.56,4.81,.47,7.25-.02,.67-.08-.67-.14,0-.01,.11-.02,2.24-.03,2.35-.09,.95-.19,1.91-.41,2.84-.09,.38-.19,.75-.3,1.11-.14,.51-.29,1.01-.44,1.52-.47,1.62-.98,3.22-1.52,4.8-.14,.4-.3,.79-.42,1.2-.09,.3-.04,.63-.05,.95-.02,.84-.06,1.68-.26,2.5-.24,1-.76,1.97-1.55,2.41,.52-6.46,.49-12.95,.45-19.43-.01-1.8-.02-3.59-.03-5.39-.02-2.86-.03-5.72-.25-8.56-.06-.79-.13-1.62,.17-2.34,.21-.49,.58-1.01,.41-1.5-.09-.27-.99-1.08-.39-1.38-.25,0-.13-.16,.01-.22,.17-.07,.36,.02,.52,.08,1.37,.55,2.44,2.18,2.39,3.96-.03,1.11-.4,2.18-.4,3.29,0,.28,.04,.55,.19,.76Zm-2.91-12.02h2.03c.29,0,.53,.24,.53,.53s-.24,.53-.53,.53h-2.03c-.29,0-.53-.24-.53-.53s.24-.53,.53-.53Z"/></g><path class="cls-1" d="M45.77,0C20.49,0,0,20.49,0,45.77s20.49,45.77,45.77,45.77,45.77-20.49,45.77-45.77S71.04,0,45.77,0Zm0,84.32c-21.29,0-38.55-17.26-38.55-38.55S24.47,7.21,45.77,7.21s38.55,17.26,38.55,38.55-17.26,38.55-38.55,38.55Z"/></g></g></g></svg>